<svg xmlns="http://www.w3.org/2000/svg" fill="none" viewBox="0 0 40 40"><path fill="#83c9f4" d="M18.334 36.667v-2.303l-.921.46a1.667 1.667 0 0 1-1.491-2.981l2.412-1.207v-3.84l-3.4-1.947-3.312 1.912.162 2.692a1.668 1.668 0 0 1-3.328.2l-.062-1.028L6.4 29.777a1.667 1.667 0 0 1-1.667-2.887l1.994-1.153-.86-.566a1.667 1.667 0 0 1 1.838-2.782l2.25 1.485 3.323-1.92-.011-3.917-3.312-1.912-2.25 1.486a1.667 1.667 0 0 1-1.837-2.782l.86-.568-1.995-1.15A1.667 1.667 0 0 1 6.4 10.222l1.994 1.15.062-1.026a1.668 1.668 0 0 1 3.328.2l-.163 2.69 3.324 1.92 3.389-1.97V9.364l-2.412-1.206a1.667 1.667 0 0 1 1.49-2.982l.922.46V3.333a1.667 1.667 0 0 1 3.333 0v2.303l.921-.46a1.667 1.667 0 0 1 1.491 2.982l-2.412 1.206V13.2l3.398 1.949 3.313-1.913-.162-2.69a1.667 1.667 0 1 1 3.327-.2l.06 1.027 1.998-1.151a1.666 1.666 0 0 1 1.666 2.887l-1.995 1.151.86.568a1.667 1.667 0 1 1-1.837 2.782l-2.25-1.486-3.324 1.919.011 3.917 3.312 1.913 2.251-1.485a1.667 1.667 0 1 1 1.836 2.782l-.86.566 1.996 1.153a1.667 1.667 0 0 1-1.666 2.887l-1.997-1.152-.06 1.028a1.667 1.667 0 1 1-3.328-.2l.162-2.692-3.324-1.919-3.387 1.968v3.826l2.412 1.207a1.667 1.667 0 0 1-1.49 2.981l-.922-.46v2.303a1.667 1.667 0 0 1-3.333 0M16.6 18.05l.012 3.92 3.398 1.948 3.389-1.97-.012-3.919-3.398-1.948z"/></svg>
