<svg xmlns="http://www.w3.org/2000/svg" fill="none" viewBox="0 0 40 40"><path fill="#ffa69e" d="M18.333 36.667v-3.334a1.667 1.667 0 1 1 3.334 0v3.334a1.667 1.667 0 1 1-3.334 0m-8.94-8.417a1.667 1.667 0 0 1 2.357 2.357l-2.357 2.357a1.667 1.667 0 0 1-2.357-2.357zm18.857 0c.651-.65 1.706-.65 2.357 0l2.357 2.357a1.667 1.667 0 0 1-2.357 2.357l-2.357-2.357a1.666 1.666 0 0 1 0-2.357m-8.24-16.665a8.334 8.334 0 1 1 .145 16.667 8.334 8.334 0 0 1-.145-16.667m.03 3.334a5.003 5.003 0 0 0-4.958 5.042 5 5 0 0 0 4.957 4.958 5 5 0 0 0 5.042-4.958 5 5 0 0 0-1.463-3.58 5 5 0 0 0-3.579-1.462M6.666 18.333a1.667 1.667 0 1 1 0 3.334H3.333a1.667 1.667 0 0 1 0-3.334zm30 0a1.667 1.667 0 1 1 0 3.334h-3.334a1.667 1.667 0 1 1 0-3.334zM7.037 7.036c.65-.65 1.705-.65 2.356 0l2.357 2.357a1.667 1.667 0 0 1-2.357 2.357L7.036 9.393a1.667 1.667 0 0 1 0-2.357m23.57 0a1.667 1.667 0 0 1 2.357 2.357l-2.357 2.357a1.666 1.666 0 1 1-2.357-2.357zm-12.274-.37V3.334a1.667 1.667 0 0 1 3.334 0v3.334a1.667 1.667 0 1 1-3.334 0"/></svg>
